<svg viewBox="0 0 512 512" xmlns="http://www.w3.org/2000/svg"><rect height="512" rx="15%" width="512" fill="#ffffff"/><path fill="#24292e" d="M256 48C141 48 48 141 48 256c0 92 59.7 170 142.4 197.6 10.4 1.9 14.2-4.5 14.2-10v-35.3c-57.9 12.6-70.1-27.9-70.1-27.9-9.5-24.1-23.1-30.5-23.1-30.5-18.9-12.9 1.4-12.6 1.4-12.6 20.9 1.5 31.9 21.5 31.9 21.5 18.6 31.8 48.7 22.6 60.6 17.3 1.9-13.5 7.3-22.6 13.2-27.8-46.2-5.3-94.8-23.1-94.8-102.8 0-22.7 8.1-41.3 21.4-55.9-2.1-5.3-9.3-26.4 2-55.1 0 0 17.4-5.6 57.2 21.3 16.6-4.6 34.4-6.9 52.1-7 17.7.1 35.5 2.4 52.1 7 39.7-26.9 57.1-21.3 57.1-21.3 11.4 28.7 4.2 49.8 2.1 55.1 13.3 14.6 21.3 33.2 21.3 55.9 0 79.9-48.7 97.5-95 102.7 7.5 6.4 14.1 19.1 14.1 38.5v57.1c0 5.6 3.8 12 14.4 10C404.4 426 464 348 464 256 464 141 371 48 256 48z"/></svg>
